<svg xmlns="http://www.w3.org/2000/svg" viewBox="0 0 1200 630">
  <defs>
    <linearGradient id="bg" x1="0" y1="0" x2="1" y2="1">
      <stop offset="0%" stop-color="#5B6CFF"/>
      <stop offset="100%" stop-color="#3B4AD6"/>
    </linearGradient>
    <radialGradient id="glow" cx="0.85" cy="0.1" r="0.7">
      <stop offset="0%" stop-color="#FFFFFF" stop-opacity="0.28"/>
      <stop offset="100%" stop-color="#FFFFFF" stop-opacity="0"/>
    </radialGradient>
    <radialGradient id="glow2" cx="0.1" cy="0.9" r="0.6">
      <stop offset="0%" stop-color="#FFFFFF" stop-opacity="0.12"/>
      <stop offset="100%" stop-color="#FFFFFF" stop-opacity="0"/>
    </radialGradient>
  </defs>

  <rect width="1200" height="630" fill="url(#bg)"/>
  <rect width="1200" height="630" fill="url(#glow)"/>
  <rect width="1200" height="630" fill="url(#glow2)"/>

  <!-- Logo mark -->
  <g transform="translate(110, 200)">
    <rect width="180" height="180" rx="36" fill="#FFFFFF" fill-opacity="0.15"/>
    <rect width="180" height="180" rx="36" fill="none" stroke="#FFFFFF" stroke-opacity="0.2" stroke-width="1.5"/>
    <path d="M56 44h20v38l38-38h26l-45 48 47 58h-26l-34-44-6 6v38H56V44z" fill="#FFFFFF"/>
  </g>

  <!-- Brand -->
  <text x="340" y="285" font-family="Inter, -apple-system, system-ui, sans-serif" font-size="92" font-weight="800" fill="#FFFFFF" letter-spacing="-3.5">ssullemon</text>

  <!-- Tagline -->
  <text x="340" y="355" font-family="Inter, -apple-system, system-ui, sans-serif" font-size="38" font-weight="500" fill="#FFFFFF" fill-opacity="0.85" letter-spacing="-1">All of Korea, in your language.</text>

  <!-- Feature pills -->
  <g transform="translate(340, 420)" font-family="Inter, system-ui, sans-serif" font-weight="600">
    <rect x="0" y="0" width="220" height="54" rx="27" fill="#FFFFFF" fill-opacity="0.15"/>
    <rect x="0" y="0" width="220" height="54" rx="27" fill="none" stroke="#FFFFFF" stroke-opacity="0.22" stroke-width="1"/>
    <circle cx="26" cy="27" r="5" fill="#FFFFFF" fill-opacity="0.9"/>
    <text x="48" y="35" font-size="20" fill="#FFFFFF">55+ Languages</text>

    <rect x="240" y="0" width="260" height="54" rx="27" fill="#FFFFFF" fill-opacity="0.15"/>
    <rect x="240" y="0" width="260" height="54" rx="27" fill="none" stroke="#FFFFFF" stroke-opacity="0.22" stroke-width="1"/>
    <circle cx="266" cy="27" r="5" fill="#FFFFFF" fill-opacity="0.9"/>
    <text x="288" y="35" font-size="20" fill="#FFFFFF">30+ Communities</text>

    <rect x="520" y="0" width="200" height="54" rx="27" fill="#FFFFFF" fill-opacity="0.15"/>
    <rect x="520" y="0" width="200" height="54" rx="27" fill="none" stroke="#FFFFFF" stroke-opacity="0.22" stroke-width="1"/>
    <circle cx="546" cy="27" r="5" fill="#FFFFFF" fill-opacity="0.9"/>
    <text x="568" y="35" font-size="20" fill="#FFFFFF">18+ Modes</text>
  </g>
</svg>
